<?xml version="1.0" encoding="utf-8"?>
<svg xmlns="http://www.w3.org/2000/svg" fill="none" height="24" viewBox="0 0 25 24" width="25">
<g clip-path="url(#clip0_768_9548)">
<path clip-rule="evenodd" d="M1.39014 3C0.975923 3 0.640137 3.33579 0.640137 3.75C0.640137 4.16421 0.975923 4.5 1.39014 4.5H2.71897C3.06312 4.5 3.36311 4.73422 3.44658 5.0681L4.16253 7.9319L6.37848 16.7957C6.62889 17.7973 7.52885 18.5 8.5613 18.5H18.3746C19.2946 18.5 20.122 17.9399 20.4637 17.0856L23.5379 9.39993C23.9977 8.25042 23.1512 7 21.9131 7H5.47572L4.90179 4.70429C4.65139 3.70267 3.75142 3 2.71897 3H1.39014ZM7.83369 16.4319L5.85072 8.5H21.9131C22.09 8.5 22.2109 8.67863 22.1452 8.84285L21.5824 10.25H9.64026C9.22605 10.25 8.89026 10.5858 8.89026 11C8.89026 11.4142 9.22605 11.75 9.64026 11.75H20.9824L19.0709 16.5285C18.957 16.8133 18.6813 17 18.3746 17H8.5613C8.21715 17 7.91716 16.7658 7.83369 16.4319ZM10.3901 20.75C10.3901 21.3023 9.94242 21.75 9.39014 21.75C8.83785 21.75 8.39014 21.3023 8.39014 20.75C8.39014 20.1977 8.83785 19.75 9.39014 19.75C9.94242 19.75 10.3901 20.1977 10.3901 20.75ZM17.3901 21.75C17.9424 21.75 18.3901 21.3023 18.3901 20.75C18.3901 20.1977 17.9424 19.75 17.3901 19.75C16.8379 19.75 16.3901 20.1977 16.3901 20.75C16.3901 21.3023 16.8379 21.75 17.3901 21.75Z" fill="#414B56" fill-rule="evenodd"/>
</g>
<defs>
<clipPath id="clip0_768_9548">
<rect fill="white" height="24" transform="translate(0.640137)" width="24"/>
</clipPath>
</defs>
</svg>