<?xml version="1.0" encoding="utf-8"?>
<svg xmlns="http://www.w3.org/2000/svg" fill="none" height="24" viewBox="0 0 25 24" width="25">
<path clip-rule="evenodd" d="M17.6348 3.00069C15.5244 2.96066 13.8994 4.7301 13.1298 5.76778C12.8984 6.07989 12.3817 6.08004 12.15 5.76806C11.3801 4.7311 9.75484 2.96323 7.64546 3.00326H7.52658C4.77365 3.00326 2.64014 5.31746 2.64014 8.14592V8.26163C2.64014 11.0901 5.61204 15.0358 7.64546 17.206C8.6038 18.228 11.0804 20.325 12.3025 20.8814C12.512 20.9768 12.7493 20.9771 12.9593 20.8828C14.1988 20.3267 16.676 18.2286 17.6348 17.206C19.6682 15.0358 22.6401 11.0875 22.6401 8.25906V8.14335C22.6401 5.31489 20.5066 3.00069 17.7537 3.00069H17.6348Z" fill-rule="evenodd" stroke="#414B56" stroke-width="1.5"/>
</svg>