<?xml version="1.0" encoding="utf-8"?>
<svg xmlns="http://www.w3.org/2000/svg" fill="none" height="24" viewBox="0 0 24 24" width="24">
<path clip-rule="evenodd" d="M3.50391 10.7968C3.50391 6.7687 6.76872 3.50391 10.7969 3.50391C14.825 3.50391 18.0899 6.7687 18.0899 10.7968C18.0899 14.8249 14.825 18.0897 10.7969 18.0897C6.76872 18.0897 3.50391 14.8249 3.50391 10.7968ZM10.7969 2.00391C5.94031 2.00391 2.00391 5.94026 2.00391 10.7968C2.00391 15.6534 5.94031 19.5897 10.7969 19.5897C12.9551 19.5897 14.9316 18.8123 16.4617 17.5223L20.7234 21.784C21.0163 22.0769 21.4912 22.0768 21.7841 21.784C22.077 21.4911 22.077 21.0162 21.7841 20.7233L17.5224 16.4617C18.8125 14.9316 19.5899 12.9551 19.5899 10.7968C19.5899 5.94026 15.6535 2.00391 10.7969 2.00391Z" fill="#676F78" fill-rule="evenodd"/>
</svg>